<svg xmlns="http://www.w3.org/2000/svg" viewBox="0 0 390 780"><defs><radialGradient id="space"><stop stop-color="#12263b"/><stop offset="1" stop-color="#030a12"/></radialGradient><radialGradient id="world" cx=".42" cy=".05" r=".8"><stop stop-color="#7dabc3"/><stop offset=".14" stop-color="#345d7a"/><stop offset=".45" stop-color="#12283b"/><stop offset="1" stop-color="#040b15"/></radialGradient><clipPath id="planet"><ellipse cx="190" cy="281" rx="330" ry="200"/></clipPath></defs><path fill="url(#space)" d="M0 0h390v780H0z"/><circle cx="332" cy="491" r="1" fill="#b7d7f0" opacity="0.28"/><circle cx="146" cy="201" r="0.5" fill="#b7d7f0" opacity="0.16"/><circle cx="276" cy="341" r="0.7" fill="#b7d7f0" opacity="0.34"/><circle cx="206" cy="187" r="0.5" fill="#b7d7f0" opacity="0.65"/><circle cx="251" cy="73" r="1" fill="#b7d7f0" opacity="0.65"/><circle cx="293" cy="669" r="0.5" fill="#b7d7f0" opacity="0.47"/><circle cx="217" cy="427" r="1" fill="#b7d7f0" opacity="0.15"/><circle cx="225" cy="358" r="0.5" fill="#b7d7f0" opacity="0.61"/><circle cx="329" cy="489" r="0.7" fill="#b7d7f0" opacity="0.20"/><circle cx="172" cy="624" r="1" fill="#b7d7f0" opacity="0.25"/><circle cx="268" cy="144" r="0.5" fill="#b7d7f0" opacity="0.69"/><circle cx="384" cy="309" r="1" fill="#b7d7f0" opacity="0.58"/><circle cx="19" cy="696" r="1" fill="#b7d7f0" opacity="0.17"/><circle cx="235" cy="724" r="0.5" fill="#b7d7f0" opacity="0.27"/><circle cx="26" cy="177" r="1" fill="#b7d7f0" opacity="0.13"/><circle cx="77" cy="354" r="1" fill="#b7d7f0" opacity="0.45"/><circle cx="33" cy="315" r="0.7" fill="#b7d7f0" opacity="0.63"/><circle cx="239" cy="361" r="0.5" fill="#b7d7f0" opacity="0.33"/><circle cx="135" cy="181" r="0.7" fill="#b7d7f0" opacity="0.33"/><circle cx="264" cy="62" r="1" fill="#b7d7f0" opacity="0.26"/><circle cx="106" cy="752" r="0.7" fill="#b7d7f0" opacity="0.44"/><circle cx="171" cy="346" r="0.5" fill="#b7d7f0" opacity="0.35"/><circle cx="325" cy="117" r="0.7" fill="#b7d7f0" opacity="0.27"/><circle cx="284" cy="712" r="1" fill="#b7d7f0" opacity="0.17"/><circle cx="233" cy="474" r="0.7" fill="#b7d7f0" opacity="0.42"/><circle cx="299" cy="23" r="0.7" fill="#b7d7f0" opacity="0.25"/><circle cx="244" cy="567" r="1" fill="#b7d7f0" opacity="0.64"/><circle cx="350" cy="123" r="0.5" fill="#b7d7f0" opacity="0.46"/><circle cx="190" cy="194" r="0.7" fill="#b7d7f0" opacity="0.53"/><circle cx="49" cy="32" r="1" fill="#b7d7f0" opacity="0.37"/><circle cx="381" cy="471" r="1" fill="#b7d7f0" opacity="0.12"/><circle cx="180" cy="759" r="0.5" fill="#b7d7f0" opacity="0.48"/><circle cx="116" cy="390" r="0.5" fill="#b7d7f0" opacity="0.69"/><circle cx="382" cy="337" r="0.7" fill="#b7d7f0" opacity="0.60"/><circle cx="32" cy="353" r="0.5" fill="#b7d7f0" opacity="0.23"/><circle cx="40" cy="301" r="0.5" fill="#b7d7f0" opacity="0.20"/><circle cx="236" cy="619" r="0.7" fill="#b7d7f0" opacity="0.18"/><circle cx="304" cy="377" r="0.7" fill="#b7d7f0" opacity="0.14"/><circle cx="251" cy="165" r="0.7" fill="#b7d7f0" opacity="0.43"/><circle cx="109" cy="447" r="0.7" fill="#b7d7f0" opacity="0.51"/><circle cx="260" cy="153" r="1" fill="#b7d7f0" opacity="0.53"/><circle cx="291" cy="708" r="0.5" fill="#b7d7f0" opacity="0.64"/><circle cx="63" cy="480" r="1" fill="#b7d7f0" opacity="0.48"/><circle cx="358" cy="81" r="0.5" fill="#b7d7f0" opacity="0.37"/><circle cx="156" cy="44" r="0.5" fill="#b7d7f0" opacity="0.18"/><circle cx="44" cy="383" r="0.5" fill="#b7d7f0" opacity="0.22"/><circle cx="279" cy="754" r="1" fill="#b7d7f0" opacity="0.67"/><circle cx="95" cy="454" r="0.5" fill="#b7d7f0" opacity="0.46"/><circle cx="266" cy="454" r="1" fill="#b7d7f0" opacity="0.15"/><circle cx="143" cy="553" r="0.5" fill="#b7d7f0" opacity="0.17"/><circle cx="306" cy="559" r="0.7" fill="#b7d7f0" opacity="0.33"/><circle cx="325" cy="514" r="0.5" fill="#b7d7f0" opacity="0.35"/><circle cx="97" cy="165" r="0.5" fill="#b7d7f0" opacity="0.32"/><circle cx="266" cy="205" r="1" fill="#b7d7f0" opacity="0.31"/><circle cx="194" cy="481" r="0.7" fill="#b7d7f0" opacity="0.16"/><circle cx="304" cy="75" r="1" fill="#b7d7f0" opacity="0.56"/><circle cx="24" cy="713" r="1" fill="#b7d7f0" opacity="0.20"/><circle cx="309" cy="501" r="1" fill="#b7d7f0" opacity="0.17"/><circle cx="53" cy="674" r="1" fill="#b7d7f0" opacity="0.20"/><circle cx="336" cy="587" r="0.7" fill="#b7d7f0" opacity="0.66"/><circle cx="359" cy="339" r="1" fill="#b7d7f0" opacity="0.43"/><circle cx="276" cy="391" r="0.7" fill="#b7d7f0" opacity="0.48"/><circle cx="32" cy="511" r="0.7" fill="#b7d7f0" opacity="0.33"/><circle cx="246" cy="308" r="0.7" fill="#b7d7f0" opacity="0.23"/><circle cx="334" cy="226" r="1" fill="#b7d7f0" opacity="0.55"/><circle cx="284" cy="245" r="0.5" fill="#b7d7f0" opacity="0.54"/><circle cx="55" cy="315" r="1" fill="#b7d7f0" opacity="0.29"/><circle cx="84" cy="412" r="0.7" fill="#b7d7f0" opacity="0.27"/><circle cx="134" cy="29" r="0.5" fill="#b7d7f0" opacity="0.18"/><circle cx="236" cy="546" r="0.5" fill="#b7d7f0" opacity="0.56"/><circle cx="228" cy="247" r="0.7" fill="#b7d7f0" opacity="0.66"/><circle cx="56" cy="156" r="0.5" fill="#b7d7f0" opacity="0.29"/><circle cx="362" cy="580" r="0.7" fill="#b7d7f0" opacity="0.70"/><circle cx="132" cy="280" r="1" fill="#b7d7f0" opacity="0.14"/><circle cx="89" cy="660" r="0.5" fill="#b7d7f0" opacity="0.56"/><circle cx="373" cy="126" r="0.5" fill="#b7d7f0" opacity="0.57"/><circle cx="276" cy="344" r="1" fill="#b7d7f0" opacity="0.49"/><circle cx="56" cy="738" r="0.5" fill="#b7d7f0" opacity="0.55"/><circle cx="12" cy="545" r="0.7" fill="#b7d7f0" opacity="0.41"/><circle cx="374" cy="2" r="0.7" fill="#b7d7f0" opacity="0.49"/><circle cx="273" cy="22" r="0.7" fill="#b7d7f0" opacity="0.28"/><circle cx="48" cy="127" r="0.5" fill="#b7d7f0" opacity="0.60"/><circle cx="76" cy="180" r="0.5" fill="#b7d7f0" opacity="0.44"/><circle cx="249" cy="660" r="1" fill="#b7d7f0" opacity="0.68"/><circle cx="190" cy="712" r="1" fill="#b7d7f0" opacity="0.19"/><circle cx="330" cy="154" r="0.7" fill="#b7d7f0" opacity="0.39"/><circle cx="143" cy="755" r="1" fill="#b7d7f0" opacity="0.24"/><circle cx="170" cy="265" r="0.5" fill="#b7d7f0" opacity="0.57"/><circle cx="257" cy="471" r="1" fill="#b7d7f0" opacity="0.20"/><circle cx="220" cy="665" r="0.7" fill="#b7d7f0" opacity="0.35"/><circle cx="327" cy="688" r="1" fill="#b7d7f0" opacity="0.34"/><circle cx="174" cy="445" r="0.7" fill="#b7d7f0" opacity="0.62"/><circle cx="35" cy="126" r="0.5" fill="#b7d7f0" opacity="0.65"/><circle cx="220" cy="192" r="1" fill="#b7d7f0" opacity="0.20"/><circle cx="144" cy="502" r="1" fill="#b7d7f0" opacity="0.54"/><circle cx="199" cy="339" r="1" fill="#b7d7f0" opacity="0.22"/><circle cx="171" cy="95" r="0.5" fill="#b7d7f0" opacity="0.65"/><circle cx="36" cy="506" r="0.5" fill="#b7d7f0" opacity="0.36"/><circle cx="266" cy="570" r="0.5" fill="#b7d7f0" opacity="0.68"/><circle cx="5" cy="660" r="1" fill="#b7d7f0" opacity="0.23"/><circle cx="258" cy="731" r="0.7" fill="#b7d7f0" opacity="0.65"/><circle cx="10" cy="314" r="1" fill="#b7d7f0" opacity="0.58"/><circle cx="247" cy="125" r="0.7" fill="#b7d7f0" opacity="0.44"/><circle cx="208" cy="550" r="0.7" fill="#b7d7f0" opacity="0.45"/><circle cx="165" cy="334" r="1" fill="#b7d7f0" opacity="0.26"/><circle cx="372" cy="258" r="0.5" fill="#b7d7f0" opacity="0.52"/><circle cx="339" cy="458" r="0.5" fill="#b7d7f0" opacity="0.36"/><circle cx="347" cy="514" r="0.7" fill="#b7d7f0" opacity="0.15"/><circle cx="369" cy="683" r="1" fill="#b7d7f0" opacity="0.69"/><circle cx="281" cy="44" r="1" fill="#b7d7f0" opacity="0.45"/><circle cx="96" cy="636" r="0.5" fill="#b7d7f0" opacity="0.20"/><circle cx="362" cy="499" r="0.5" fill="#b7d7f0" opacity="0.13"/><circle cx="255" cy="563" r="0.7" fill="#b7d7f0" opacity="0.66"/><circle cx="98" cy="83" r="1" fill="#b7d7f0" opacity="0.65"/><circle cx="81" cy="213" r="1" fill="#b7d7f0" opacity="0.40"/><circle cx="137" cy="240" r="0.7" fill="#b7d7f0" opacity="0.66"/><circle cx="319" cy="530" r="0.7" fill="#b7d7f0" opacity="0.15"/><circle cx="194" cy="452" r="1" fill="#b7d7f0" opacity="0.50"/><circle cx="105" cy="97" r="0.7" fill="#b7d7f0" opacity="0.28"/><circle cx="271" cy="638" r="0.5" fill="#b7d7f0" opacity="0.52"/><circle cx="57" cy="114" r="0.7" fill="#b7d7f0" opacity="0.39"/><circle cx="287" cy="575" r="0.7" fill="#b7d7f0" opacity="0.66"/><circle cx="112" cy="420" r="0.5" fill="#b7d7f0" opacity="0.51"/><circle cx="34" cy="726" r="0.7" fill="#b7d7f0" opacity="0.49"/><circle cx="223" cy="509" r="1" fill="#b7d7f0" opacity="0.51"/><circle cx="18" cy="521" r="0.5" fill="#b7d7f0" opacity="0.44"/><circle cx="355" cy="505" r="1" fill="#b7d7f0" opacity="0.52"/><circle cx="3" cy="498" r="0.5" fill="#b7d7f0" opacity="0.57"/><circle cx="129" cy="186" r="0.5" fill="#b7d7f0" opacity="0.28"/><circle cx="371" cy="508" r="1" fill="#b7d7f0" opacity="0.61"/><ellipse cx="190" cy="281" rx="330" ry="200" fill="url(#world)" stroke="#8fbcd5" stroke-width="2"/><g clip-path="url(#planet)" fill="none" stroke="#9fbfd2" opacity=".09"><path d="M-60 130Q140 51 450 180M-60 143Q140 69 450 193M-60 152Q140 80 450 212" stroke-width="5"/><path d="M10 128Q58 102 77 129T142 127T220 149T291 154T370 166" stroke-width="12"/></g><path fill="#030a12" opacity=".55" d="M0 180h390v600H0z"/><path transform="translate(22 656) rotate(30) scale(1.5)" d="M-20 -8 -8 -23 16 -18 25 0 12 19 -12 17Z" fill="#1c2934" stroke="#455765"/><path transform="translate(22 656) rotate(30) scale(1.5)" d="M-20 -8 2 -4 16 -18M2 -4 12 19" fill="none" stroke="#73838a" opacity=".3"/><path transform="translate(351 600) rotate(60) scale(1.1)" d="M-20 -8 -8 -23 16 -18 25 0 12 19 -12 17Z" fill="#1c2934" stroke="#455765"/><path transform="translate(351 600) rotate(60) scale(1.1)" d="M-20 -8 2 -4 16 -18M2 -4 12 19" fill="none" stroke="#73838a" opacity=".3"/><path transform="translate(50 749) rotate(10) scale(3)" d="M-20 -8 -8 -23 16 -18 25 0 12 19 -12 17Z" fill="#1c2934" stroke="#455765"/><path transform="translate(50 749) rotate(10) scale(3)" d="M-20 -8 2 -4 16 -18M2 -4 12 19" fill="none" stroke="#73838a" opacity=".3"/><path transform="translate(335 767) rotate(90) scale(2.8)" d="M-20 -8 -8 -23 16 -18 25 0 12 19 -12 17Z" fill="#1c2934" stroke="#455765"/><path transform="translate(335 767) rotate(90) scale(2.8)" d="M-20 -8 2 -4 16 -18M2 -4 12 19" fill="none" stroke="#73838a" opacity=".3"/><path transform="translate(374 104) rotate(25) scale(0.7)" d="M-20 -8 -8 -23 16 -18 25 0 12 19 -12 17Z" fill="#1c2934" stroke="#455765"/><path transform="translate(374 104) rotate(25) scale(0.7)" d="M-20 -8 2 -4 16 -18M2 -4 12 19" fill="none" stroke="#73838a" opacity=".3"/><path transform="translate(25 112) rotate(75) scale(0.45)" d="M-20 -8 -8 -23 16 -18 25 0 12 19 -12 17Z" fill="#1c2934" stroke="#455765"/><path transform="translate(25 112) rotate(75) scale(0.45)" d="M-20 -8 2 -4 16 -18M2 -4 12 19" fill="none" stroke="#73838a" opacity=".3"/></svg>